<svg width="48" height="48" viewBox="0 0 48 48" fill="none" xmlns="http://www.w3.org/2000/svg">
<mask id="mask0_6:390" style="mask-type:alpha" maskUnits="userSpaceOnUse" x="0" y="0" width="48" height="48">
<circle cx="24" cy="24" r="24" fill="#C4C4C4"/>
</mask>
<g mask="url(#mask0_6:390)">
<circle cx="24" cy="24" r="24" fill="#EFF5FF"/>
<path d="M12.0613 12.232C12.0613 12.232 12.7741 11.5763 14.114 12.7452L14.7412 11.7759C14.7412 11.7759 13.2302 10.5785 12.0613 12.232Z" fill="#6078BA"/>
<path d="M14.5131 9.38112C14.5131 9.38112 13.6863 10.4074 14.8837 11.6048L14.0854 12.4316C14.0854 12.4316 12.2324 10.1509 14.5131 9.38112Z" fill="#6078BA"/>
<path d="M11.0919 37.3486C12.5459 35.0963 14.8551 34.4691 14.8551 34.4691L20.3574 32.4165H25.6316L31.1338 34.4691C31.1338 34.4691 33.4431 35.0963 34.897 37.3486H11.0919Z" fill="#B6E1F8"/>
<path d="M30.193 48.068H38.7172C38.7172 46.614 38.6317 44.5329 38.6317 44.5329C38.1185 35.8091 31.7895 34.4406 31.7895 34.4406C26.8289 33.2432 29.5373 40.9122 29.5373 40.9122C29.3948 42.7653 29.6513 45.2456 30.193 48.068Z" fill="#58C3E7"/>
<path d="M26.6009 27.2563H19.3881V34.2981H26.6009V27.2563Z" fill="#B6E1F8"/>
<path d="M26.6294 30.5349V27.2563H19.3881V28.8813C21.4693 30.5919 23.9496 30.82 26.6294 30.5349Z" fill="#83D0F3"/>
<path d="M34.3269 48.068C34.4694 44.2763 34.4124 43.2214 34.3839 41.9385C34.2984 39.0591 33.6997 36.6073 31.7895 34.4691L26.6294 32.7871C26.6294 32.7871 27.7127 34.6972 22.9802 34.6972C22.9802 34.6972 19.8727 34.5832 19.4166 32.7871L14.1709 34.4691C14.1709 34.4691 9.69498 35.581 8.92523 40.285L11.5481 45.1316L11.4625 48.0965H34.3269V48.068Z" fill="#6078BA"/>
<path d="M32.2458 18.447C32.4453 16.822 32.1032 15.2825 32.1317 13.686C32.1317 12.6027 31.9322 11.0061 30.5923 10.8636C28.7392 10.664 28.169 13.8571 28.0549 15.254C27.9124 17.1641 28.3685 19.2168 28.7392 21.0699C28.8817 21.7541 28.8532 23.094 29.6229 23.4076C30.2787 23.6927 30.9344 23.037 31.2765 22.5523C32.0747 21.355 32.0747 19.8155 32.2458 18.447Z" fill="#6078BA"/>
<path d="M30.8774 26.287C30.1362 29.1379 28.8532 29.9362 28.8532 29.9362L27.1142 30.2783C26.1164 30.1643 24.4058 29.7366 24.4058 29.7366C20.4716 28.3967 19.3312 28.0261 18.704 26.5436C18.704 26.4581 15.625 15.7672 15.625 15.7672C15.1118 10.2649 20.8707 9.12454 21.7545 8.98199C22.6097 8.78243 28.112 7.27144 29.7085 12.5456C29.7085 12.5456 32.1033 18.6466 30.8774 26.287Z" fill="#B6E1F8"/>
<path d="M32.6733 7.21442C32.9869 8.92496 32.7018 11.2912 31.3619 12.3746C29.9365 13.5719 28.6821 13.2298 26.9715 13.629C25.1754 14.0281 23.3223 14.1992 21.5263 14.5413C20.2719 14.7978 18.7894 14.9404 18.2192 16.2803C17.4495 18.0479 17.3069 20.3571 17.8201 22.0962C18.2477 23.5501 18.3903 24.9471 18.8464 26.8002C17.2214 25.4317 15.9385 23.4646 15.9385 23.4646C15.1117 22.0392 15.1117 22.0392 14.1994 19.5304C13.6577 18.0764 13.2016 16.7935 13.1161 15.2825C13.0305 13.3439 13.9713 12.4886 14.9977 10.721C15.967 9.039 17.3354 7.87013 19.1315 7.35696C19.1315 7.35696 28.1689 7.87013 27.9978 5.78896C27.9978 5.78896 30.1645 6.33063 29.7654 7.7846C29.7654 7.7846 32.0461 7.35696 31.5615 5.78896C31.59 5.78896 32.5023 6.2166 32.6733 7.21442Z" fill="#6078BA"/>
<path d="M18.1623 21.6971C18.1623 21.6971 17.193 19.5874 15.6535 20.8418C15.6535 20.8418 14.9692 21.3835 15.8245 22.8089C15.8245 22.8089 17.0789 24.8616 18.5614 23.7212L18.1623 21.6971Z" fill="#B6E1F8"/>
<path d="M18.0197 16.765C18.0197 16.765 18.0197 20.5567 18.7324 22.5808L17.9912 22.7234C17.9912 22.7234 17.5921 20.1291 16.2521 20.1006L18.0197 16.765Z" fill="#6078BA"/>
<path d="M16.2236 48.068H8.26953C8.26953 48.068 8.29804 46.1864 8.29804 46.0438C8.35506 44.1907 8.4691 42.3091 8.8112 40.4846C9.29586 37.8617 10.5503 35.5525 13.3727 34.8683C14.6556 34.5547 15.7959 35.3529 16.4802 36.3792C16.4802 36.4078 17.7346 37.9758 16.2236 48.068Z" fill="#58C3E7"/>
</g>
</svg>
