<svg width="1078" height="1080" viewBox="0 0 1078 1080" fill="none" xmlns="http://www.w3.org/2000/svg">
<rect width="1078" height="1080" fill="#EFF5FF"/>
<g opacity="0.08">
<mask id="mask0_4:481" style="mask-type:alpha" maskUnits="userSpaceOnUse" x="0" y="0" width="1078" height="1080">
<rect width="1078" height="1080" fill="#EFF5FF"/>
</mask>
<g mask="url(#mask0_4:481)">
<path d="M378.849 -29.8953L436.846 28.1015C477.133 68.3893 542.435 68.3893 582.501 28.1015L615.706 -5.10276C622.789 -12.1863 634.079 -12.1863 641.162 -5.10276L641.384 -4.8814C648.689 2.42353 648.689 14.1557 641.384 21.4606C630.316 32.5287 553.282 109.563 535.794 127.05C499.048 163.796 499.048 223.342 535.794 260.088C572.54 296.834 632.087 296.834 668.833 260.088L991.135 -62.214L1061.97 -52.4741L944.649 64.8475C893.514 115.982 893.514 198.993 944.649 250.127C995.784 301.262 1078.79 301.262 1129.93 250.127L1309.23 70.8243C1316.98 63.0766 1329.6 63.0766 1337.34 70.8243C1345.09 78.5719 1345.09 91.1895 1337.34 98.9372L1072.15 364.35C1043.15 393.348 1043.15 440.055 1072.15 469.054C1101.15 498.052 1147.86 498.052 1176.86 469.054L1360.81 285.102C1369.22 276.691 1382.72 276.691 1390.91 285.102C1399.33 293.514 1399.33 307.017 1390.91 315.207L1387.59 318.528C1326.5 379.624 1326.5 478.572 1387.59 539.668L1524.84 676.912V-118.44" fill="#91CFF2"/>
<path d="M245.723 -18.6917C252.86 -97.7097 194.59 -167.552 115.572 -174.69C36.5539 -181.828 -33.2889 -123.557 -40.4264 -44.5391C-47.564 34.4789 10.7066 104.322 89.7245 111.459C168.742 118.597 238.585 60.3262 245.723 -18.6917Z" fill="#FFCF54"/>
<path d="M340.996 64.4048C295.396 64.4048 258.428 101.372 258.428 146.973C258.428 192.573 295.396 229.54 340.996 229.54C386.597 229.54 423.564 192.573 423.564 146.973C423.564 101.372 386.597 64.4048 340.996 64.4048ZM340.996 213.381C304.25 213.381 274.588 183.719 274.588 146.973C274.588 110.448 304.25 80.5642 340.996 80.5642C377.521 80.5642 407.405 110.227 407.405 146.973C407.405 183.719 377.742 213.381 340.996 213.381Z" fill="#91CFF2"/>
<path d="M305.8 723.619C316.069 723.619 324.394 715.294 324.394 705.025C324.394 694.756 316.069 686.431 305.8 686.431C295.53 686.431 287.205 694.756 287.205 705.025C287.205 715.294 295.53 723.619 305.8 723.619Z" fill="#FFCF54"/>
<path d="M345.645 683.774C355.914 683.774 364.239 675.449 364.239 665.18C364.239 654.911 355.914 646.586 345.645 646.586C335.376 646.586 327.051 654.911 327.051 665.18C327.051 675.449 335.376 683.774 345.645 683.774Z" fill="#FFCF54"/>
<path d="M-204.217 663.63L-22.7009 482.114C18.0297 441.383 83.9954 441.383 124.505 482.114C165.235 522.845 165.235 588.81 124.505 629.319L41.9367 711.887C24.0064 729.818 24.0064 758.595 41.9367 776.525C59.867 794.455 88.644 794.455 106.574 776.525L124.505 758.595C161.251 721.849 220.797 721.849 257.543 758.595C294.289 795.341 294.289 854.887 257.543 891.633L183.829 965.346C175.86 973.315 175.86 986.154 183.829 994.123C191.798 1002.09 204.637 1002.09 212.606 994.123L392.352 814.378C424.007 782.723 475.584 782.723 507.239 814.378C538.893 846.032 538.893 897.61 507.239 929.264L458.76 977.964C451.898 984.826 451.898 996.116 458.76 1003.2C465.623 1010.06 476.912 1010.06 483.996 1003.2L487.98 999.215C572.983 914.212 711.113 914.212 796.115 999.215L879.126 1082.23H-466.531C-466.531 1082 -188.058 679.79 -204.217 663.63Z" fill="#B9E6FF"/>
<path d="M285.434 397.775C287.869 395.34 292.075 395.34 294.51 397.775L313.99 417.255C316.425 419.69 316.425 423.896 313.99 426.331C311.555 428.766 307.349 428.766 304.914 426.331L285.434 406.851C282.999 404.416 282.999 400.431 285.434 397.775Z" fill="#7477AB"/>
<path d="M314.21 397.775C316.645 400.21 316.645 404.416 314.21 406.851L294.73 426.331C292.295 428.766 288.089 428.766 285.654 426.331C283.219 423.896 283.219 419.69 285.654 417.255L305.134 397.775C307.569 395.34 311.554 395.34 314.21 397.775Z" fill="#7477AB"/>
<path d="M713.326 258.317C736.677 258.317 755.606 239.388 755.606 216.037C755.606 192.687 736.677 173.757 713.326 173.757C689.976 173.757 671.046 192.687 671.046 216.037C671.046 239.388 689.976 258.317 713.326 258.317Z" fill="#7477AB"/>
<path d="M923.177 341.771C927.089 341.771 930.26 338.599 930.26 334.687C930.26 330.775 927.089 327.604 923.177 327.604C919.265 327.604 916.093 330.775 916.093 334.687C916.093 338.599 919.265 341.771 923.177 341.771Z" fill="#7477AB"/>
<path d="M923.177 378.295C927.089 378.295 930.26 375.124 930.26 371.212C930.26 367.3 927.089 364.128 923.177 364.128C919.265 364.128 916.093 367.3 916.093 371.212C916.093 375.124 919.265 378.295 923.177 378.295Z" fill="#7477AB"/>
<path d="M958.816 341.771C962.728 341.771 965.899 338.599 965.899 334.687C965.899 330.775 962.728 327.604 958.816 327.604C954.904 327.604 951.732 330.775 951.732 334.687C951.732 338.599 954.904 341.771 958.816 341.771Z" fill="#7477AB"/>
<path d="M958.816 378.295C962.728 378.295 965.899 375.124 965.899 371.212C965.899 367.3 962.728 364.128 958.816 364.128C954.904 364.128 951.732 367.3 951.732 371.212C951.732 375.124 954.904 378.295 958.816 378.295Z" fill="#7477AB"/>
<path d="M341.882 880.565C351.418 880.565 359.148 872.834 359.148 863.299C359.148 853.763 351.418 846.032 341.882 846.032C332.346 846.032 324.615 853.763 324.615 863.299C324.615 872.834 332.346 880.565 341.882 880.565Z" fill="#31346B"/>
<path d="M753.835 95.6167L901.262 -51.8101" stroke="white" stroke-width="3" stroke-miterlimit="10" stroke-linecap="round"/>
<path d="M-202.668 891.19L83.5526 604.97" stroke="white" stroke-width="3" stroke-miterlimit="10" stroke-linecap="round"/>
<path d="M108.345 1241.83L364.903 985.269" stroke="white" stroke-width="3" stroke-miterlimit="10" stroke-linecap="round"/>
<path d="M189.363 446.032C208.557 446.032 224.117 430.472 224.117 411.278C224.117 392.084 208.557 376.524 189.363 376.524C170.169 376.524 154.61 392.084 154.61 411.278C154.61 430.472 170.169 446.032 189.363 446.032Z" fill="#B9E6FF"/>
<path d="M836.846 252.341C846.993 252.341 855.219 244.115 855.219 233.968C855.219 223.821 846.993 215.595 836.846 215.595C826.699 215.595 818.473 223.821 818.473 233.968C818.473 244.115 826.699 252.341 836.846 252.341Z" fill="#91CFF2"/>
<path d="M-9.64066 881.229C15.4215 881.229 35.7385 860.912 35.7385 835.85C35.7385 810.787 15.4215 790.471 -9.64066 790.471C-34.7029 790.471 -55.0198 810.787 -55.0198 835.85C-55.0198 860.912 -34.7029 881.229 -9.64066 881.229Z" fill="white"/>
<path d="M895.064 920.41C809.618 920.41 740.111 989.917 740.111 1075.36C740.111 1160.81 809.618 1230.32 895.064 1230.32C980.509 1230.32 1050.02 1160.81 1050.02 1075.36C1050.02 989.917 980.509 920.41 895.064 920.41ZM895.064 1199.55C826.442 1199.55 770.659 1143.99 770.659 1075.14C770.659 1006.3 826.22 950.736 895.064 950.736C963.686 950.736 1019.47 1006.3 1019.47 1075.14C1019.47 1143.99 963.686 1199.55 895.064 1199.55Z" fill="#91CFF2"/>
<path d="M-105.49 1091.08C-102.391 1089.97 16.0376 970.438 61.1954 924.616C70.7139 914.876 86.4306 914.876 95.9492 924.616C105.468 934.134 105.468 949.851 95.9492 959.369L58.7604 996.558C53.8905 1001.43 53.8905 1009.18 58.7604 1014.05C63.6304 1018.92 71.378 1018.92 76.248 1014.05L91.7433 998.55C102.369 987.925 119.413 987.925 129.817 998.55C140.443 1009.18 140.443 1026.22 129.817 1036.62C125.39 1041.05 125.39 1048.36 129.817 1052.78L173.426 1096.39H-109.474" fill="#91CFF2"/>
<path d="M1223.79 -52.4741L1088.98 82.335C1076.36 94.9526 1076.36 115.097 1088.98 127.714C1101.59 140.332 1121.74 140.332 1134.36 127.714L1206.3 55.7716C1210.5 51.5658 1217.59 51.5658 1221.79 55.7716C1226 59.9775 1226 67.0611 1221.79 71.267L1197.22 95.8381C1190.36 102.7 1190.36 113.547 1197.22 120.409C1204.08 127.271 1214.93 127.271 1221.79 120.409L1287.76 54.4435C1302.59 39.6123 1324.95 36.7346 1342.44 46.0317C1346.64 48.2453 1350.4 50.9017 1353.95 54.4435L1355.72 56.2144L1484.11 -72.1753C1484.55 -72.3967 1223.79 -53.8023 1223.79 -52.4741Z" fill="#B9E6FF"/>
<path d="M856.547 -121.539L597.111 137.897" stroke="#31346B" stroke-width="3" stroke-miterlimit="10" stroke-linecap="round"/>
</g>
</g>
<line x1="0.5" y1="2.18557e-08" x2="0.499953" y2="1080" stroke="#88ABE3"/>
</svg>
