<svg width="724" height="1080" viewBox="0 0 724 1080" fill="none" xmlns="http://www.w3.org/2000/svg">
<g clip-path="url(#clip0_4:213)">
<path d="M582.849 -10.8953L640.846 47.1015C681.133 87.3893 746.435 87.3893 786.501 47.1015L819.706 13.8972C826.789 6.81367 838.079 6.81367 845.162 13.8972L845.384 14.1186C852.689 21.4235 852.689 33.1557 845.384 40.4606C834.316 51.5287 757.282 128.563 739.794 146.05C703.048 182.796 703.048 242.342 739.794 279.088C776.54 315.834 836.087 315.834 872.833 279.088L1195.13 -43.214L1265.97 -33.4741L1148.65 83.8475C1097.51 134.982 1097.51 217.993 1148.65 269.127C1199.78 320.262 1282.79 320.262 1333.93 269.127L1513.23 89.8243C1520.98 82.0766 1533.6 82.0766 1541.34 89.8243C1549.09 97.5719 1549.09 110.19 1541.34 117.937L1276.15 383.35C1247.15 412.348 1247.15 459.055 1276.15 488.054C1305.15 517.052 1351.86 517.052 1380.86 488.054L1564.81 304.102C1573.22 295.691 1586.72 295.691 1594.91 304.102C1603.33 312.514 1603.33 326.017 1594.91 334.207L1591.59 337.528C1530.5 398.624 1530.5 497.572 1591.59 558.668L1728.84 695.912V-99.4399" fill="#91CFF2"/>
<path d="M449.723 0.308257C456.86 -78.7097 398.59 -148.552 319.572 -155.69C240.554 -162.828 170.711 -104.557 163.574 -25.5391C156.436 53.4789 214.707 123.322 293.725 130.459C372.742 137.597 442.585 79.3262 449.723 0.308257Z" fill="#FFCF54"/>
<path d="M544.996 83.4048C499.396 83.4048 462.428 120.372 462.428 165.973C462.428 211.573 499.396 248.54 544.996 248.54C590.597 248.54 627.564 211.573 627.564 165.973C627.564 120.372 590.597 83.4048 544.996 83.4048ZM544.996 232.381C508.25 232.381 478.588 202.719 478.588 165.973C478.588 129.448 508.25 99.5642 544.996 99.5642C581.521 99.5642 611.405 129.227 611.405 165.973C611.405 202.719 581.742 232.381 544.996 232.381Z" fill="#91CFF2"/>
<path d="M509.8 742.619C520.069 742.619 528.394 734.294 528.394 724.025C528.394 713.756 520.069 705.431 509.8 705.431C499.53 705.431 491.205 713.756 491.205 724.025C491.205 734.294 499.53 742.619 509.8 742.619Z" fill="#FFCF54"/>
<path d="M549.645 702.774C559.914 702.774 568.239 694.449 568.239 684.18C568.239 673.911 559.914 665.586 549.645 665.586C539.376 665.586 531.051 673.911 531.051 684.18C531.051 694.449 539.376 702.774 549.645 702.774Z" fill="#FFCF54"/>
<path d="M46.6953 481.476C72.3159 455.855 72.316 414.316 46.6954 388.695C21.0748 363.075 -20.4643 363.075 -46.0849 388.695C-71.7054 414.316 -71.7054 455.855 -46.0848 481.476C-20.4643 507.096 21.0748 507.096 46.6953 481.476Z" fill="#FFCF54"/>
<path d="M-0.217346 682.63L181.299 501.114C222.03 460.383 287.995 460.383 328.505 501.114C369.235 541.845 369.235 607.81 328.505 648.319L245.937 730.887C228.006 748.818 228.006 777.595 245.937 795.525C263.867 813.455 292.644 813.455 310.574 795.525L328.505 777.595C365.251 740.849 424.797 740.849 461.543 777.595C498.289 814.341 498.289 873.887 461.543 910.633L387.829 984.346C379.86 992.315 379.86 1005.15 387.829 1013.12C395.798 1021.09 408.637 1021.09 416.606 1013.12L596.352 833.378C628.007 801.723 679.584 801.723 711.239 833.378C742.893 865.032 742.893 916.61 711.239 948.264L662.76 996.964C655.898 1003.83 655.898 1015.12 662.76 1022.2C669.623 1029.06 680.912 1029.06 687.996 1022.2L691.98 1018.21C776.983 933.212 915.113 933.212 1000.12 1018.21L1083.13 1101.23H-262.531C-262.531 1101 15.942 698.79 -0.217346 682.63Z" fill="#B9E6FF"/>
<path d="M489.434 416.775C491.869 414.34 496.075 414.34 498.51 416.775L517.99 436.255C520.425 438.69 520.425 442.896 517.99 445.331C515.555 447.766 511.349 447.766 508.914 445.331L489.434 425.851C486.999 423.416 486.999 419.431 489.434 416.775Z" fill="#31346B"/>
<path d="M518.21 416.775C520.645 419.21 520.645 423.416 518.21 425.851L498.73 445.331C496.295 447.766 492.089 447.766 489.654 445.331C487.219 442.896 487.219 438.69 489.654 436.255L509.134 416.775C511.569 414.34 515.554 414.34 518.21 416.775Z" fill="#31346B"/>
<path d="M153.186 240.571C166.145 240.571 176.65 230.066 176.65 217.107C176.65 204.148 166.145 193.643 153.186 193.643C140.227 193.643 129.722 204.148 129.722 217.107C129.722 230.066 140.227 240.571 153.186 240.571Z" fill="#31346B"/>
<path d="M132.378 294.805C136.29 294.805 139.462 291.634 139.462 287.722C139.462 283.809 136.29 280.638 132.378 280.638C128.466 280.638 125.295 283.809 125.295 287.722C125.295 291.634 128.466 294.805 132.378 294.805Z" fill="#31346B"/>
<path d="M132.378 331.33C136.29 331.33 139.462 328.158 139.462 324.246C139.462 320.334 136.29 317.163 132.378 317.163C128.466 317.163 125.295 320.334 125.295 324.246C125.295 328.158 128.466 331.33 132.378 331.33Z" fill="#31346B"/>
<path d="M167.796 294.805C171.708 294.805 174.88 291.634 174.88 287.722C174.88 283.809 171.708 280.638 167.796 280.638C163.884 280.638 160.713 283.809 160.713 287.722C160.713 291.634 163.884 294.805 167.796 294.805Z" fill="#31346B"/>
<path d="M167.796 331.33C171.708 331.33 174.88 328.158 174.88 324.246C174.88 320.334 171.708 317.163 167.796 317.163C163.884 317.163 160.713 320.334 160.713 324.246C160.713 328.158 163.884 331.33 167.796 331.33Z" fill="#31346B"/>
<path d="M60.4366 294.805C64.3487 294.805 67.5202 291.634 67.5202 287.722C67.5202 283.809 64.3487 280.638 60.4366 280.638C56.5244 280.638 53.353 283.809 53.353 287.722C53.353 291.634 56.5244 294.805 60.4366 294.805Z" fill="#31346B"/>
<path d="M60.4356 331.33C64.3478 331.33 67.5192 328.158 67.5192 324.246C67.5192 320.334 64.3478 317.163 60.4356 317.163C56.5235 317.163 53.3521 320.334 53.3521 324.246C53.3521 328.158 56.5235 331.33 60.4356 331.33Z" fill="#31346B"/>
<path d="M95.8536 294.805C99.7657 294.805 102.937 291.634 102.937 287.722C102.937 283.809 99.7657 280.638 95.8536 280.638C91.9414 280.638 88.77 283.809 88.77 287.722C88.77 291.634 91.9414 294.805 95.8536 294.805Z" fill="#31346B"/>
<path d="M95.8536 331.33C99.7657 331.33 102.937 328.158 102.937 324.246C102.937 320.334 99.7657 317.163 95.8536 317.163C91.9414 317.163 88.77 320.334 88.77 324.246C88.77 328.158 91.9414 331.33 95.8536 331.33Z" fill="#31346B"/>
<path d="M545.882 899.565C555.418 899.565 563.148 891.834 563.148 882.299C563.148 872.763 555.418 865.032 545.882 865.032C536.346 865.032 528.615 872.763 528.615 882.299C528.615 891.834 536.346 899.565 545.882 899.565Z" fill="#31346B"/>
<path d="M1.33215 910.19L287.553 623.97" stroke="white" stroke-width="3" stroke-miterlimit="10" stroke-linecap="round"/>
<path d="M312.345 1260.83L568.903 1004.27" stroke="white" stroke-width="3" stroke-miterlimit="10" stroke-linecap="round"/>
<path d="M-139.233 969.736L117.326 713.178" stroke="white" stroke-width="3" stroke-miterlimit="10" stroke-linecap="round"/>
<path d="M393.363 465.032C412.557 465.032 428.117 449.472 428.117 430.278C428.117 411.084 412.557 395.524 393.363 395.524C374.169 395.524 358.61 411.084 358.61 430.278C358.61 449.472 374.169 465.032 393.363 465.032Z" fill="#B9E6FF"/>
<path d="M194.359 900.229C219.422 900.229 239.738 879.912 239.738 854.85C239.738 829.787 219.422 809.471 194.359 809.471C169.297 809.471 148.98 829.787 148.98 854.85C148.98 879.912 169.297 900.229 194.359 900.229Z" fill="white"/>
<path d="M98.5101 1110.08C101.609 1108.97 220.038 989.438 265.195 943.616C274.714 933.876 290.431 933.876 299.949 943.616C309.468 953.134 309.468 968.851 299.949 978.369L262.76 1015.56C257.89 1020.43 257.89 1028.18 262.76 1033.05C267.63 1037.92 275.378 1037.92 280.248 1033.05L295.743 1017.55C306.369 1006.93 323.413 1006.93 333.817 1017.55C344.443 1028.18 344.443 1045.22 333.817 1055.62C329.39 1060.05 329.39 1067.36 333.817 1071.78L377.426 1115.39H94.5256" fill="#91CFF2"/>
<path d="M693.53 1128.23L1013.84 808.142" stroke="#31346B" stroke-width="3" stroke-miterlimit="10" stroke-linecap="round"/>
<path d="M-172.658 1302L147.652 981.69" stroke="#31346B" stroke-width="3" stroke-miterlimit="10" stroke-linecap="round"/>
<path d="M523.746 191.872L458.665 256.731" stroke="#31346B" stroke-width="3" stroke-miterlimit="10" stroke-linecap="round"/>
</g>
<defs>
<clipPath id="clip0_4:213">
<rect width="724" height="1080" fill="white"/>
</clipPath>
</defs>
</svg>
