<svg width="112" height="43" viewBox="0 0 112 43" fill="none" xmlns="http://www.w3.org/2000/svg">
<path d="M54.1123 21.3933C54.1123 9.57971 44.6554 -4.13376e-07 32.9932 -9.23145e-07C21.3311 -1.43291e-06 11.8741 9.57971 11.8741 21.3933L-6.95997e-05 21.3933C-6.95997e-05 21.3933 7.50611 42.7865 32.9932 42.7865C44.6554 42.7865 54.1123 33.2068 54.1123 21.3933ZM32.9932 14.3481C36.8099 14.3481 39.9481 17.4841 39.9481 21.3933C39.9481 25.2595 36.8523 28.4384 32.9932 28.4384C29.1765 28.4384 26.0383 25.3025 26.0383 21.3933C26.0383 17.527 29.1765 14.3481 32.9932 14.3481Z" fill="#5E93E7"/>
<path d="M57.8877 21.3933C57.8877 33.2069 67.3446 42.7866 79.0068 42.7866C90.6689 42.7866 100.126 33.2069 100.126 21.3933L112 21.3933C112 21.3933 104.494 4.63321e-05 79.0068 4.60282e-05C67.3446 4.58891e-05 57.8877 9.57976 57.8877 21.3933ZM79.0068 28.4385C75.1901 28.4385 72.0519 25.3025 72.0519 21.3933C72.0519 17.5271 75.1477 14.3481 79.0068 14.3481C82.8235 14.3481 85.9617 17.4841 85.9617 21.3933C85.9617 25.2596 82.8235 28.4385 79.0068 28.4385Z" fill="#B3CDF8"/>
</svg>
