<svg width="22" height="24" viewBox="0 0 22 24" fill="none" xmlns="http://www.w3.org/2000/svg">
<path d="M21.3873 9.03113C21.0161 8.66199 20.4161 8.66364 20.0469 9.03473L8.65391 20.4894C7.1758 21.9675 4.77514 21.9675 3.29428 20.4874C1.81453 19.0069 1.81453 16.6062 3.29446 15.1263L15.0247 3.3344C15.9475 2.41162 17.4479 2.41162 18.3733 3.3364C19.2986 4.26162 19.2986 5.76176 18.3731 6.68725L8.65568 16.4046C8.65506 16.4052 8.65453 16.4059 8.65391 16.4066C8.2837 16.7747 7.68541 16.7742 7.31597 16.4048C6.9459 16.0347 6.9459 15.4349 7.31597 15.0648L12.0065 10.3733C12.3766 10.0032 12.3765 9.40307 12.0064 9.033C11.6362 8.66293 11.0361 8.66297 10.666 9.03313L5.97554 13.7245C4.86528 14.8348 4.86528 16.6348 5.97563 17.7451C7.08593 18.8554 8.8859 18.8554 9.99625 17.7451C9.99753 17.7438 9.99856 17.7424 9.9998 17.7411L19.7134 8.0275C21.3791 6.36178 21.3791 3.66147 19.7134 1.99575C18.0475 0.331007 15.3473 0.331007 13.6826 1.99575L1.95234 13.7877C-0.266037 16.0061 -0.266037 19.6066 1.95394 21.8277C4.17539 24.048 7.77596 24.048 9.99607 21.8279L21.3909 10.3715C21.76 10.0003 21.7584 9.40027 21.3873 9.03113Z" fill="#CACACA"/>
</svg>
